/* XPM */
static char * item_03_xpm[] = {
"64 64 46 1",
" 	c #335FB3",
".	c #2B5397",
"+	c #132B4B",
"@	c #0B1B33",
"#	c #1E386D",
"$	c #19315C",
"%	c #0B192F",
"&	c #061021",
"*	c #23437F",
"=	c #14274E",
"-	c #000104",
";	c #020512",
">	c #F5F5F6",
",	c #01040E",
"'	c #B4B9C2",
")	c #B4B9C3",
"!	c #01030A",
"~	c #B3B8C2",
"{	c #8892A0",
"]	c #6A727B",
"^	c #8B8F96",
"/	c #F4BFBF",
"(	c #C29298",
"_	c #000102",
":	c #D81A1A",
"<	c #FE0001",
"[	c #A2757E",
"}	c #B58E94",
"|	c #D81A1B",
"1	c #FE0103",
"2	c #FE0105",
"3	c #D81A1C",
"4	c #95717A",
"5	c #A60B0D",
"6	c #010309",
"7	c #FFB8B8",
"8	c #FE0102",
"9	c #A60B0C",
"0	c #020717",
"a	c #BC8D93",
"b	c #C00708",
"c	c #C0080A",
"d	c #C00809",
"e	c #A60A0B",
"f	c #C0080C",
"g	c #A60B0E",
"   ......               .. ..++@###$$$$$$###############$$#$$%%&",
"  .............    ...........+@##$$$$$$$$$$$$$####$$$$$$$$$$$%&",
" ....*******................*++@#$$$$=======$$$$$$$$$$$$$$$$=%%&",
" ...****************......**+@@@#$$$================$$$$$$==%&&&",
" ...************************++@@#$$$========================%%&&",
" ...*************************+@@#$$$=========================%&&",
"...**************************++@$$$==========================%%&",
"..****************************+@$$============================%&",
"..****************************+@$$============================%&",
" ..**************************+@@#$$==========================%&&",
" ..**************************+@@#$$==========================%&&",
" ..************************+++@@#$$========================%%%&&",
"..******************++****+@@+@@$$==================%%====%&&%&&",
"..+++******++++++*++++++++@@@@@@$$%%%======%%%%%%=%%%%%%%%&&&&&&",
"++@@++++++++@@@@@++@@@@++@@@@@@@%%&&%%%%%%%%&&&&&%%&&&&%%&&&&&&&",
"@@@@@@@@@@@@@@@@@@@@@@@@@@@@--------@@@@@@@@@@@@@@@@@@@@@@@@@@@@",
"        .. ..++@###$$$$$$#;;>>>>>>>>;;##$$#$$%%&   ......       ",
"   ...........+@##$$$$$$$,'''''))))''',$$$$$$$%&  ............. ",
"............*++@#$$$$====!~~'''''''''',$$$$$=%%& ....*******....",
"****......**+@@@#$$$======!!{~~~~~~{,,$$$$==%&&& ...************",
"************++@@#$$$========!]]]]]]!========%%&& ...************",
"*************+@@#$$$=========!>>{{!==========%&& ...************",
"*************++@$$$==========!>~~{!==========%%&...*************",
"**************+@$$===========!>~~{!===========%&..**************",
"**************+@$$===========!>~~{!===========%&..**************",
"*************+@@#$$==========!>~~{!==========%&& ..*************",
"*************+@@#$$==========!>~~{!==========%&& ..*************",
"***********+++@@#$$==========!>~~{!========%%%&& ..*************",
"****++****+@@+@@$$===========!>~~{!=%%====%&&%&&..**************",
"+*++++++++@@@@@@$$%%%======%--^^^]--%%%%%%&&&&&&..+++******+++++",
"@++@@@@++@@@@@@@%%&&%%%%%%--/(((((((__&%%&&&&&&&++@@++++++++@@@@",
"@@@@@@@@@@@@@@@@@@@@@@@@@-//:<<<<<:[(}-@@@@@@@@@@@@@@@@@@@@@@@@@",
".               .. ..++@;/(|11111233[4};########$$#$$%%&   .....",
".......    ...........+-/(|11111111||54};##$$$$$$$$$$$%&  ......",
"****................*+6/(|1177788888||54},$$$$$$$$$$=%%& ....***",
"************......**+@-(3111777888888|94}!==$$$$$$==%&&& ...****",
"********************+6(:2111777788888|994}!=========%%&& ...****",
"*********************6(:21118877888888|99}!==========%&& ...****",
"*********************6(:11188888888888|99}!==========%%&...*****",
"*********************0a:||88888888888||99}!===========%&..******",
"*********************0abc||888888888||d99}!===========%&..******",
"*********************6}efc|||||||||||dd99}!==========%&& ..*****",
"*********************6}egccddddddddddd999}!==========%&& ..*****",
"*******************+++-}g559dddddddd9999}!=========%%%&& ..*****",
"************++****+@@+@-}}999999999999}}!===%%====%&&%&&..******",
"***++++++*++++++++@@@@@@,,}}}}}}}}}}}}--%=%%%%%%%%&&&&&&..+++***",
"++++@@@@@++@@@@++@@@@@@@%%__--------__&&&%%&&&&%%&&&&&&&++@@++++",
"@@@@@@@@@@@@@@@@@@@@@@@@@@@@@@@@@@@@@@@@@@@@@@@@@@@@@@@@@@@@@@@@",
".. ..++@###$$$$$$###############$$#$$%%@   ......               ",
"......+@##$$$$$$$$$$$$$####$$$$$$$$$$$%@  .............    .....",
"....*++@#$$$$=======$$$$$$$$$$$$$$$$=%%@ ....*******............",
"..**+@@@#$$$================$$$$$$==%&&@ ...****************....",
"****++@@#$$$========================%%&@ ...********************",
"*****+@@#$$$=========================%&@ ...********************",
"*****++@$$$==========================%%@...*********************",
"******+@$$============================%@..**********************",
"******+@$$============================%@..**********************",
"*****+@@#$$==========================%&@ ..*********************",
"*****+@@#$$==========================%&@ ..*********************",
"***+++@@#$$========================%%%&@ ..*********************",
"**+@@+@@$$==================%%====%&&%&@..******************++**",
"++@@@@@@$$%%%======%%%%%%=%%%%%%%%&&&&&@..+++******++++++*++++++",
"+@@@@@@@%%&&%%%%%%%%&&&&&%%&&&&%%&&&&&&@++@@++++++++@@@@@++@@@@+",
"@@@@@@@@&&&&&&&&&&&&&&&&&&&&&&&&&&&&&&&@@@@@@@@@@@@@@@@@@@@@@@@@"};
