/* XPM */
static char * item_02_xpm[] = {
"64 64 86 1",
" 	c #79735E",
".	c #666A62",
"+	c #536265",
"@	c #4E595A",
"#	c #464D4F",
"$	c #000000",
"%	c #9BACAA",
"&	c #869A9C",
"*	c #62797E",
"=	c #616257",
"-	c #888D82",
";	c #A1A9A3",
">	c #89928C",
",	c #93968B",
"'	c #383F40",
")	c #28221F",
"!	c #5B6F73",
"~	c #0B0F10",
"{	c #030202",
"]	c #F6F6F6",
"^	c #F5F6F6",
"/	c #F5F5F5",
"(	c #F8F9F9",
"_	c #F8F8F7",
":	c #F7F7F6",
"<	c #15140E",
"[	c #7C9193",
"}	c #B5BAC3",
"|	c #B4B8C1",
"1	c #B3B8C1",
"2	c #B7BDC6",
"3	c #B6BBC2",
"4	c #10110F",
"5	c #B5BAC2",
"6	c #8A94A1",
"7	c #8B96A2",
"8	c #0A0D0D",
"9	c #6A727B",
"0	c #0F1517",
"a	c #F6F7F7",
"b	c #050707",
"c	c #B4B9C2",
"d	c #B5BBC4",
"e	c #8C95A0",
"f	c #191E1E",
"g	c #F6F6F7",
"h	c #8993A0",
"i	c #0F0F0C",
"j	c #8B8F96",
"k	c #F4BFBF",
"l	c #C29298",
"m	c #080A0A",
"n	c #D81A1A",
"o	c #FE0100",
"p	c #FE0000",
"q	c #FE0504",
"r	c #FE0403",
"s	c #D81C1C",
"t	c #A2757E",
"u	c #B58E94",
"v	c #1E2322",
"w	c #FE0404",
"x	c #FE0303",
"y	c #FE0202",
"z	c #95717A",
"A	c #191B18",
"B	c #A60D0E",
"C	c #FFB8B8",
"D	c #D81B1B",
"E	c #020201",
"F	c #1C1C1B",
"G	c #FE0607",
"H	c #A60B0B",
"I	c #D81E1F",
"J	c #A70F10",
"K	c #FE0505",
"L	c #FE0A0B",
"M	c #BC8D93",
"N	c #C00B0B",
"O	c #A60D0D",
"P	c #C00909",
"Q	c #A60E0F",
"R	c #C00A0A",
"S	c #C00809",
"T	c #A60C0C",
"U	c #A60A0A",
" .+++++++++ +@#$%&&&***==-  +@#$%;>,,       =='$$))')''@--  +@#)",
"=+++++..+++..+@),.++++ *++++@+@)&.+++ ..+++..+@== --  --.+++@+@)",
" ++++++.++..+++'.+++. +++++++@+'*+++ .++++..+++++++++ ..+++++@+'",
" ++*++.+...+++#) ++**++++++++++)*++*++.+...++++@++++ .+++++++++)",
"*+.*+.+..+++++#' + +++++++++++@)*+.*+.+..+++++@++++*++++++++++@)",
"*+ +++.++++++#+'  .+++++++++!#')*+ +++.++++++@+@++.*+.++++++!#')",
"* +++.++++@+@++'* .+.+.++++!##''* +++.++++@+@@@+@+++.+.++++!##''",
"=*++++++++#++++'- ..+.++++!!##')=*++++++++#+++@@+++.+.++++!!##')",
"=++++++++##++++'- .+..+++!##@#''=++++++++##++@++++++..+++!##@#''",
"#+++++++!#@+@++' .+++++@+#@++@#'#+++++++!#@+@++++++++++@+#@++@#'",
"##+++++!#@+@+++' +++++@+@@++++#'##+++++!#@+@++++++++++@+@@++++#'",
"##++++!#@+@+@++' .+++@+@+++++++'##++++!#@+@+@++++++++@+@+++++++'",
"#@+++!#@+@+++++) +++@+@++++++++)#@+++!#@+@++++++++++@+@++++++++)",
"@++!###+++++++@) .++++++++++++@)@++!###+++++++@+@+++++++++++++@)",
"@#####@++##@++#).+.+++++++++++#$@#####@++##@++#+@###+++++##@++#)",
"))))')''''')'))$- ..+.++++++~~~$${{{')''''')')$$))))')''''')'))$",
"**&&***==####@@$ ..+.+++++~~]]^/(_]:<<      +@#)[-.  .#'###**@#*",
"*+*+++ *++##@@+) ++++++++~}}}}|12}}}}34.+++..+@)[.++*.+.'#*..+@+",
"+*++. ++++++@+@).++*+++++~}}5}|12}}}3}~+++..+++'*++*.+..'#[.++#+",
"+++**++++++++@@) +*++++#++~~65||2}}7~~++...+.+#)*+*++.++*#*+++@#",
"++ +++++++++@+@' *.+++@+#+++89999990+++...+.++#'*++++++++**+++@@",
"+@+++++++++@+@#)..+.+++@#++@+{a/76<+++++.+.++#+'#+++++++++*++++@",
"@+++++++++++!##'#+.+++++#+@+@bacde~++++.++++@++)'#@+@++++@++++#@",
"+@++.+.+++++!#+''..++++@@#+@'f]c57~++++++++++++'#'##+@+@@+@+##+@",
"@++...+++++!#@#'#''*+++@++@'&~gc56~+++++++++++@)#@++###@++++++++",
"+++..++++++!##+'####*+@++@'*+4^cc6~++++++++++@')@++++++#+++++++@",
"++..+.+++++@#+#'#*[***+@@'&..8^cchi++++++++@##')@+++++@+@++!++++",
" ..+.+++++@#+#+)*..++++@+)!@@~]|chi++@++!!@#+@)$@+++++++++!@@+++",
"+.+.++@+++#+@+@'*.++++@+'*+@+8]cce8+@+!++@#+@'))#+@+++++++!@++#+",
"@++++#+++@#@+@+)@++++@+').++~8jjj9~8+@++@#+#+)))#@+@+++++!@+@@+#",
"#@+##+++@@#+@@#)#@+##)))$'~8klllllll8m+@@@++')')##@+@+++!##@@'##",
"))')''''''''))$$))')))$$){kknoppqrstlum+@@++' +$))))')''''')'))$",
"$%&&***-- .++@ -- )')''@vklswxypqwsstzum#+@',@#)%,.         +@#)",
")-.+++   .+++++++ -- &&AklswxwxorqwssBzu~')&.+@)&.+++ ..+++..+@)",
")-+++....++++++++++++ 4klswwCCCyrwwxsDBzuEF.+++'&+++ .++++..+++'",
"'-++**+.++++++++++++ .~lswwwCCCoGwwGxDHzuEF+++#)&++*++++...+.+#)",
") + ++.+.+++@++++++*+~lswwwwCCCCGxyyoIJJzu{'++#'*+.*+++...+.++#'",
"'  .+.+..++@++++++.*+4lswwwwKyCCxyLqqwsBBu~+'#+'*+ +++++.+.++#+'",
"'-.+++.+++@+@+++++.+.~lswwwKyyyyyqwwwqsBBu8+@'+'* +++++.++++@++'",
"@-.++++++@+@++++++..+4MsssKKyyyorGwwwssBBum+++''=*+++++++++++++'",
"-.++++++++@+++++++.+.4MNNsDyxyyyrwwwssNBBum++++F==+=++++++++++@'",
"-+++++++!#@++++++.+++~uONPDssDDDDssssNNBQu8+@++' +=++++++++++@@'",
" ++++++!#@+++++++++++~uBORNNNNPSPPNNNNBQTu~@+++' =+=+++++++@###'",
" +++++!!#++++++++++++@~uBBBBNNNSPPNNBBQTu~@+@++'*=+++@++!!@#+@+'",
"+@+++!##@+++++++++++@+@~uuBBBBBUTOBBBQuu~@+++++) +++@+@+@##+@+@)",
"@+@++####@++++++++++++++~~uuuuuuuuuuuum~++++++@)*++@+@+@@@+#+@@)",
"#@++@''''##++@#++###+++++#m8~~m{8mmmmm@++##@++#$*+@@++++@+++@+#)",
"))')))')'''')))$))))')''''')'))$))))')''''')'))$,++++++++++@+++$",
"%,.         +@#)[-.  .#'###**@#....         +@#) ++++++++++@+++$",
"&.+++ ..+++..+@)[.++*.+.'#*..+@++.+++ ..+++..+@),.++++ *++@@@@#)",
"&+++ .++++..+++'*++*.+..'#[.++++++++ .++++..+++' +++. ++++@+@+#)",
"&++*++++...+.+#)*+*++.++*#*++++++++*++++...+.+#),++**++++@+++!#)",
"*+.*+++...+.++#'*++++++++**++++++++++++...+.++#',+ ++++++++++##'",
"*+ +++++.+.++#+'#+++++++++*+++++++++++++.+.++#+'  .+.+.+++++!##)",
"* +++++.++++@++''#@+@++++@+++++++++++++.++++@++' .+.+.+++++!##@'",
"=*+++++++++++++'#'##+@+@@+@++++++++++++++++++++' .++.+++++!#@++'",
"=+++++++++++++@'#@++###@++++++++++++++++++++++@' ++..++++!#@+++'",
"#++++++++++++@@'@++++++#+++++++++++++++++++++@@' ++.++++##@+@+#'",
"=#+++++++++@###'@+++++@+@++!+++++++++++++++@###' +..++@##@+@++#'",
"##++++++++@#+@+'@+++++++++!@@+@++++++@++!!@#+@+' ..+++++++@+++@)",
"=@@+++@+++#+@+@)#+@+++++++!@+++++@@+@+!!###+@+@)+.++++@++@+@+++'",
"=@+@+@+++@+#+@@)#@+@+++++!@+@@+++@+@+@##@#+#+@@)@++++#+++++++++)",
"=.+@@@++@+@+@+#)##@+@+++!##@@+++@+@@@##+#+#+@+#)#@+##++++++++@#)",
".+=++++@+@+++++$))))')''''')'))$))))')''''')'))$$)')'''''''')))$"};
