/* XPM */
static char * player_02_xpm[] = {
"64 64 27 1",
" 	c #79735E",
".	c #666A62",
"+	c #536265",
"@	c #4E595A",
"#	c #464D4F",
"$	c #000000",
"%	c #9BACAA",
"&	c #869A9C",
"*	c #62797E",
"=	c #616257",
"-	c #888D82",
";	c #A1A9A3",
">	c #89928C",
",	c #93968B",
"'	c #383F40",
")	c #28221F",
"!	c #F4F4F4",
"~	c #5B6F73",
"{	c #FFCD75",
"]	c #3B5DC9",
"^	c #1A1C2C",
"/	c #EF7D57",
"(	c #B13E53",
"_	c #7C9193",
":	c #333C57",
"<	c #41A6F6",
"[	c #73EFF7",
" .+++++++++ +@#$%&&&***==-  +@#$%;>,,       =='$$))')''@--  +@#)",
"=+++++..+++..+@),.++++ *++++@+@)&.+++ ..+++..+@== --  --.+++@+@)",
" ++++++.++..+++'.+++. +++++++@+'*+++ .++++..+++++++++ ..+++++@+'",
" ++*++.+...+++#) ++**++++!!!!!!!!!!!!+.+...++++@++++ .+++++++++)",
"*+.*+.+..+++++#' + ++++++!!!!!!!!!!!!.+..+++++@++++*++++++++++@)",
"*+ +++.++++++#+'  .++++++!!!!!!!!!!!!+.++++++@+@++.*+.++++++~#')",
"* +++.+!!!!!!!!!!!!!!!!!!{{{{{{{{{{{{!!!!!!+@@@+@+++.+.++++~##''",
"=*+++++!!!!!!!!!!!!!!!!!!{{{{{{{{{{{{!!!!!!+++@@+++.+.++++~~##')",
"=++++++!!!!!!!!!!!!!!!!!!{{{{{{{{{{{{!!!!!!++@++++++..+++~##@#''",
"#+++!!!]]]]]]]]]]]]^^^{{{//////(((///^^^^^^!!!+++++++++@+#@++@#'",
"##++!!!]]]]]]]]]]]]^^^{{{//////(((///^^^^^^!!!++++++++@+@@++++#'",
"##++!!!]]]]]]]]]]]]^^^{{{//////(((///^^^^^^!!!+++++++@+@+++++++'",
"#!!!]]]]]]]]]]]]]]]^^^///{{{{{{///{{{^^^^^^^^^!!!+++@+@++++++++)",
"@!!!]]]]]]]]]]]]]]]^^^///{{{{{{///{{{^^^^^^^^^!!!+++++++++++++@)",
"@!!!]]]]]]]]]]]]]]]^^^///{{{{{{///{{{^^^^^^^^^!!!###+++++##@++#)",
")!!!]]]]]]]]]]]]]]]^^^^^^{{{{{{{{{{{{^^^^^^^^^!!!)))')''''')'))$",
"*!!!]]]]]]]]]]]]]]]^^^^^^{{{{{{{{{{{{^^^^^^^^^!!!-.  .#'###**@#*",
"*!!!]]]]]]]]]]]]]]]^^^^^^{{{{{{{{{{{{^^^^^^^^^!!!.++*.+.'#*..+@+",
"+!!!]]]]]]]]]]]]]]]^^^^^^^^^^^^^^^^^^^^^^^^^^^!!!++*.+..'#_.++#+",
"+!!!]]]]]]]]]]]]]]]^^^^^^^^^^^^^^^^^^^^^^^^^^^!!!+*++.++*#*+++@#",
"+!!!]]]]]]]]]]]]]]]^^^^^^^^^^^^^^^^^^^^^^^^^^^!!!++++++++**+++@@",
"+!!!]]]]]]]]]]]]^^^^^^]]]]]]]]]]]]]]]]]]^^^^^^!!!!!!!!!!!!*++++@",
"@!!!]]]]]]]]]]]]^^^^^^]]]]]]]]]]]]]]]]]]^^^^^^!!!!!!!!!!!!++++#@",
"+!!!]]]]]]]]]]]]^^^^^^]]]]]]]]]]]]]]]]]]^^^^^^!!!!!!!!!!!!@+##+@",
"@!!!^^^^^^^^^^^^::::::::::::::::::::::::::::::::::::::::::!!!+++",
"+!!!^^^^^^^^^^^^::::::::::::::::::::::::::::::::::::::::::!!!++@",
"+!!!^^^^^^^^^^^^::::::::::::::::::::::::::::::::::::::::::!!!+++",
" !!!^^^^^^^^^^^^:::::::::::::::::::::::::::::::::<<<<<<[[[!!!+++",
"+!!!^^^^^^^^^^^^:::::::::::::::::::::::::::::::::<<<<<<[[[!!!+#+",
"@!!!^^^^^^^^^^^^:::::::::::::::::::::::::::::::::<<<<<<[[[!!!@+#",
"#!!!^^^^^^^^^^^^^^^::::::::::::::::::::::::::::::<<<<<<[[[!!!'##",
")!!!^^^^^^^^^^^^^^^::::::::::::::::::::::::::::::<<<<<<[[[!!!))$",
"$!!!^^^^^^^^^^^^^^^::::::::::::::::::::::::::::::<<<<<<[[[!!!@#)",
")-.+!!!^^^^^^]]]]]]]]]:::::::::::::::::::::::::::<<<<<<[[[!!!+@)",
")-++!!!^^^^^^]]]]]]]]]:::::::::::::::::::::::::::<<<<<<[[[!!!++'",
"'-++!!!^^^^^^]]]]]]]]]:::::::::::::::::::::::::::<<<<<<[[[!!!+#)",
") + ++.!!!^^^]]]]]]]]]::::::::::::::::::^^^^^^^^^:::::::::!!!+#'",
"'  .+.+!!!^^^]]]]]]]]]::::::::::::::::::^^^^^^^^^:::::::::!!!#+'",
"'-.+++.!!!^^^]]]]]]]]]::::::::::::::::::^^^^^^^^^:::::::::!!!++'",
"@-.++++++@!!!]]]]]]]]]]]]]]]]]]]]]]]]]]]^^^^^^^^^!!!!!!!!!+++++'",
"-.++++++++!!!]]]]]]]]]]]]]]]]]]]]]]]]]]]^^^^^^^^^!!!!!!!!!++++@'",
"-+++++++~#!!!]]]]]]]]]]]]]]]]]]]]]]]]]]]^^^^^^^^^!!!!!!!!!+++@@'",
" ++++++~#@!!!^^^^^^^^^^^^^^^]]]]]]^^^^^^!!!!!!!!!=+=+++++++@###'",
" +++++~~#+!!!^^^^^^^^^^^^^^^]]]]]]^^^^^^!!!!!!!!!=+++@++~~@#+@+'",
"+@+++~##@+!!!^^^^^^^^^^^^^^^]]]]]]^^^^^^!!!!!!!!!+++@+@+@##+@+@)",
"@+@++####@!!!^^^^^^!!!!!!!!!!!!!!!^^^^^^!!!+++@)*++@+@+@@@+#+@@)",
"#@++@''''#!!!^^^^^^!!!!!!!!!!!!!!!^^^^^^!!!@++#$*+@@++++@+++@+#)",
"))')))')''!!!^^^^^^!!!!!!!!!!!!!!!^^^^^^!!!)'))$,++++++++++@+++$",
"%,.       !!!]]]!!!  .#'###**@#!!!]]]!!!    +@#) ++++++++++@+++$",
"&.+++ ..++!!!]]]!!!+*.+.'#*..+@!!!]]]!!!+++..+@),.++++ *++@@@@#)",
"&+++ .++++!!!]]]!!!*.+..'#_.+++!!!]]]!!!++..+++' +++. ++++@+@+#)",
"&++*++++...+.+#)^^^^^^^^^^^^^^^^^^+*++++...+.+#),++**++++@+++~#)",
"*+.*+++...+.++#'^^^^^^^^^^^^^^^^^^+++++...+.++#',+ ++++++++++##'",
"*+ +++++.+.++#+'^^^^^^^^^^^^^^^^^^++++++.+.++#+'  .+.+.+++++~##)",
"* +++++.++++@++''#@^^^^^^^^^^^^++++++++.++++@++' .+.+.+++++~##@'",
"=*+++++++++++++'#'#^^^^^^^^^^^^++++++++++++++++' .++.+++++~#@++'",
"=+++++++++++++@'#@+^^^^^^^^^^^^+++++++++++++++@' ++..++++~#@+++'",
"#++++++++++++@@'@++++++#+++++++++++++++++++++@@' ++.++++##@+@+#'",
"=#+++++++++@###'@+++++@+@++~+++++++++++++++@###' +..++@##@+@++#'",
"##++++++++@#+@+'@+++++++++~@@+@++++++@++~~@#+@+' ..+++++++@+++@)",
"=@@+++@+++#+@+@)#+@+++++++~@+++++@@+@+~~###+@+@)+.++++@++@+@+++'",
"=@+@+@+++@+#+@@)#@+@+++++~@+@@+++@+@+@##@#+#+@@)@++++#+++++++++)",
"=.+@@@++@+@+@+#)##@+@+++~##@@+++@+@@@##+#+#+@+#)#@+##++++++++@#)",
".+=++++@+@+++++$))))')''''')'))$))))')''''')'))$$)')'''''''')))$"};
