/* XPM */
static char * item_05_xpm[] = {
"64 64 63 1",
" 	c #335FB3",
".	c #2B5397",
"+	c #132B4B",
"@	c #0B1B33",
"#	c #1E386D",
"$	c #19315C",
"%	c #0B192F",
"&	c #061021",
"*	c #23437F",
"=	c #14274E",
"-	c #020713",
";	c #040F1F",
">	c #061228",
",	c #050D21",
"'	c #DADBDB",
")	c #DBDBDE",
"!	c #020611",
"~	c #A0A4AD",
"{	c #A0A4AC",
"]	c #091631",
"^	c #7A8497",
"/	c #A0A6B4",
"(	c #676F79",
"_	c #67707A",
":	c #798494",
"<	c #DADBDD",
"[	c #A0A5B0",
"}	c #798392",
"|	c #878B93",
"1	c #B7E8BF",
"2	c #86BC99",
"3	c #06B228",
"4	c #06C029",
"5	c #679F80",
"6	c #86B096",
"7	c #05C024",
"8	c #05B223",
"9	c #67937D",
"0	c #86BC98",
"a	c #04C023",
"b	c #04B221",
"c	c #048719",
"d	c #05C025",
"e	c #B7EDC0",
"f	c #05871C",
"g	c #08C131",
"h	c #07C02C",
"i	c #08B22F",
"j	c #08872A",
"k	c #67937E",
"l	c #86B097",
"m	c #0F2446",
"n	c #86BC9A",
"o	c #06B227",
"p	c #07B22B",
"q	c #078725",
"r	c #0B1B3A",
"s	c #068722",
"t	c #86B497",
"u	c #05951E",
"v	c #069524",
"w	c #068721",
"x	c #079627",
"   ......               .. ..++@###$$$$$$###############$$#$$%%&",
"  .............    ...........+@##$$$$$$$$$$$$$####$$$$$$$$$$$%&",
" ....*******................*++@#$$$$=======$$$$$$$$$$$$$$$$=%%&",
" ...****************......**+@@@#$$$================$$$$$$==%&&&",
" ...************************++@@#$$$========================%%&&",
" ...*************************+@@#$$$=========================%&&",
"...**************************++@$$$==========================%%&",
"..****************************+@$$============================%&",
"..****************************+@$$============================%&",
" ..**************************+@@#$$==========================%&&",
" ..**************************+@@#$$==========================%&&",
" ..************************+++@@#$$========================%%%&&",
"..******************++****+--;-->>,=================%%====%&&%&&",
"..+++******++++++*+++++++;-'''''))'!!======%%%%%%=%%%%%%%%&&&&&&",
"++@@++++++++@@@@@++@@@@+;~~~~~~~~~{{~!%%%%%%&&&&&%%&&&&%%&&&&&&&",
"@@@@@@@@@@@@@@@@@@@@@@@@-~~~~~~~~~~~~-@@@@@@@@@@@@@@@@@@@@@@@@@@",
"        .. ..++@###$$$$$$]]^//////^]]###$$#$$%%&   ......       ",
"   ...........+@##$$$$$$$$$>(((___]$$$$$$$$$$$%&  ............. ",
"............*++@#$$$$=======>))::>$$$$$$$$$$=%%& ....*******....",
"****......**+@@@#$$$========,<[[},==$$$$$$==%&&& ...************",
"************++@@#$$$========,<[[},==========%%&& ...************",
"*************+@@#$$$========,<[[},===========%&& ...************",
"*************++@$$$=========,<[[},===========%%&...*************",
"**************+@$$==========,<[[},============%&..**************",
"**************+@$$==========,<[[},============%&..**************",
"*************+@@#$$=========,<[[},===========%&& ..*************",
"*************+@@#$$========,,|||(,,==========%&& ..*************",
"***********+++@@#$$======,,12222222,,======%%%&& ..*************",
"****++****+@@+@@$$======,113444443526!====%&&%&&..**************",
"+*++++++++@@@@@@$$%%%==,12377777738596!%%%&&&&&&..+++******+++++",
"@++@@@@++@@@@@@@%%&&%%!10877aaaaa78bc96!%&&&&&&&++@@++++++++@@@@",
"@@@@@@@@@@@@@@@@@@@@@-108ddeeeddddd88f96-@@@@@@@@@@@@@@@@@@@@@@@",
".               .. ..;08gggeeehhhgggijkl]#######$$#$$%%&   .....",
".......    .........mnodggheeeehhhhhpqqkl]#$$$$$$$$$$$%&  ......",
"****................r0odghhhhee44444hpqql>$$$$$$$$$$=%%& ....***",
"************......**;08dghhh4444444443ssl,==$$$$$$==%&&& ...****",
"********************;t88ihhh4444444433ssl,==========%%&& ...****",
"********************rtuuiphh444444433vssl,===========%&& ...****",
"********************rlwuxpp333333333vvssl,===========%%&...*****",
"********************rlwfxxvvvvvvvvvvvsssl,============%&..******",
"*********************rlfqqsvvvvvvvvssssl,=============%&..******",
"*********************+-6lqqssssssssssll,=============%&& ..*****",
"*********************+@-]llllllllllll,,==============%&& ..*****",
"*******************+++@@#>>,,,,,,,,,,==============%%%&& ..*****",
"************++****+@@+@@$$==================%%====%&&%&&..******",
"***++++++*++++++++@@@@@@$$%%%======%%%%%%=%%%%%%%%&&&&&&..+++***",
"++++@@@@@++@@@@++@@@@@@@%%&&%%%%%%%%&&&&&%%&&&&%%&&&&&&&++@@++++",
"@@@@@@@@@@@@@@@@@@@@@@@@@@@@@@@@@@@@@@@@@@@@@@@@@@@@@@@@@@@@@@@@",
".. ..++@###$$$$$$###############$$#$$%%@   ......               ",
"......+@##$$$$$$$$$$$$$####$$$$$$$$$$$%@  .............    .....",
"....*++@#$$$$=======$$$$$$$$$$$$$$$$=%%@ ....*******............",
"..**+@@@#$$$================$$$$$$==%&&@ ...****************....",
"****++@@#$$$========================%%&@ ...********************",
"*****+@@#$$$=========================%&@ ...********************",
"*****++@$$$==========================%%@...*********************",
"******+@$$============================%@..**********************",
"******+@$$============================%@..**********************",
"*****+@@#$$==========================%&@ ..*********************",
"*****+@@#$$==========================%&@ ..*********************",
"***+++@@#$$========================%%%&@ ..*********************",
"**+@@+@@$$==================%%====%&&%&@..******************++**",
"++@@@@@@$$%%%======%%%%%%=%%%%%%%%&&&&&@..+++******++++++*++++++",
"+@@@@@@@%%&&%%%%%%%%&&&&&%%&&&&%%&&&&&&@++@@++++++++@@@@@++@@@@+",
"@@@@@@@@&&&&&&&&&&&&&&&&&&&&&&&&&&&&&&&@@@@@@@@@@@@@@@@@@@@@@@@@"};
