/* XPM */
static char *_d91b61770e04d0fb7f11aef39c554d4y9Gp1tcFA2cy5Vfr[] = {
/* columns rows colors chars-per-pixel */
"64 64 22 1 ",
"  c #052610",
". c #223413",
"X c #6A737B",
"o c #A71C0E",
"O c #C11A0C",
"+ c #FE0E04",
"@ c #FE1705",
"# c #D9251C",
"$ c #95717A",
"% c #A2757E",
"& c #38B764",
"* c #A7F070",
"= c #8B8F96",
"- c #B58E94",
"; c #BC8D93",
": c #90A2A1",
"> c #C29298",
", c #F4BFBF",
"< c #FFB8B8",
"1 c #B9C5C3",
"2 c #F5FAF6",
"3 c #F9FEF7",
/* pixels */
"***********************************************************&&***",
"**************&&********************************&&*********&&***",
"**************&&********************************&&**************",
"****************************************************************",
"****************************************************************",
"****************************************************************",
"****************************************************************",
"****************************************************************",
"****&&******************************&&**************************",
"****&&******************************&&**************************",
"****************************************************************",
"**************************************************************&*",
"*******************&*******************************&************",
"***************************........*****************************",
"*************************..33323333..***************************",
"************************.111111111111.**************************",
"************************.111111111111.*******************&&*****",
"**************&&*********..:111111:..*********&&*********&&*****",
"**************&&***********.XXXXXX.***********&&****************",
"****************************.33::.******************************",
"****************************.311:.******************************",
"****************************.311:.******************************",
"****************************.311:.******************************",
"****************************.311:.******************************",
"****&&**********************.311:.**&&**************************",
"****&&**********************.311:.**&&**************************",
"****************************.311:.******************************",
"***************************..===X..***************************&*",
"********************&&***..,>>>>>>>..**************&************",
"********************&&**.,,#@@@@@#%>-.*******************&&*****",
"***********************.,>#@@@@@@##%$-.******************&&*****",
"**********************.,>#@@@@@@@@##o$-.************************",
"***&*****************.,>#@@<<<@@@@@##o$-.***********************",
"*********************.>#@@@<<<@@@@@@#o$- ***********************",
"**************&*****.>#@@@@<<<<@@@@@#oo$-.**********************",
"********************.>#@@@@@@<<@@@@@@#oo-.*********&************",
"********************.>#@@@@@@@@@@@@@@#oo-.**********************",
"********************.;###@@@@@@@++@@##oo-.**********************",
"********************.;OO##@@@@@@++@##Ooo-.**********************",
"********************.-oOO###########OOoo-.**********************",
"********************.-ooOOOOOOOOOOOOOooo-.**********************",
"*********************.-ooooOOOOOOOOoooo-.***********************",
"**********************.--oooooooooooo--.************************",
"***********************..------------..*************************",
"********************&&***............***************************",
"********************&&***********************************&&*****",
"*********************************************************&&*****",
"****************************************************************",
"***&*******************************&****************************",
"****************************************&***********************",
"**************&*************************************************",
"***************************************************&************",
"****************************************************************",
"******************************&&********************************",
"******************************&&********************************",
"****************************************************************",
"****************************************************************",
"****************************************************************",
"****************************************************************",
"****************************************************************",
"********************&&******************************************",
"********************&&***********************************&&*****",
"*********************************************************&&*****",
"****************************************************************"
};
