/* XPM */
static char *_bc76e9d99894aebd0dbf536dd78a73astWXfLPI0R46375h[] = {
/* columns rows colors chars-per-pixel */
"64 64 11 1 ",
"  c #1A1C2C",
". c #333C57",
"X c #B13E53",
"o c #EF7D57",
"O c #38B764",
"+ c #A7F070",
"@ c #FFCD75",
"# c #3B5DC9",
"$ c #41A6F6",
"% c #73EFF7",
"& c #F4F4F4",
/* pixels */
"+++++++++++++++++++++++++++++++++++++++++++++++++++++++++++OO+++",
"++++++++++++++OO++++++++++++++++++++++++++++++++OO+++++++++OO+++",
"++++++++++++++OO++++++++++++++++++++++++++++++++OO++++++++++++++",
"+++++++++++++++++++++++++++&&&&&&&&&&&&+++++++++++++++++++++++++",
"+++++++++++++++++++++++++++&&&&&&&&&&&&+++++++++++++++++++++++++",
"+++++++++++++++++++++++++++&&&&&&&&&&&&+++++++++++++++++++++++++",
"+++++++++++++++++++++&&&&&&@@@@@@@@@@@@&&&&&&&&&&&&&&&&&&+++++++",
"+++++++++++++++++++++&&&&&&@@@@@@@@@@@@&&&&&&&&&&&&&&&&&&+++++++",
"++++OO+++++++++++++++&&&&&&@@@@@@@@@@@@&&&&&&&&&&&&&&&&&&+++++++",
"++++OO++++++++++++&&&      oooXXXoooooo@@@   ############&&&++++",
"++++++++++++++++++&&&      oooXXXoooooo@@@   ############&&&++++",
"++++++++++++++++++&&&      oooXXXoooooo@@@   ############&&&++O+",
"+++++++++++++++&&&         @@@ooo@@@@@@ooo   ###############&&&+",
"+++++++++++++++&&&         @@@ooo@@@@@@ooo   ###############&&&+",
"+++++++++++++++&&&         @@@ooo@@@@@@ooo   ###############&&&+",
"+++++++++++++++&&&         @@@@@@@@@@@@      ###############&&&+",
"+++++++++++++++&&&         @@@@@@@@@@@@      ###############&&&+",
"++++++++++++++O&&&         @@@@@@@@@@@@      ###############&&&+",
"++++++++++++++O&&&                           ###############&&&+",
"+++++++++++++++&&&                           ###############&&&+",
"+++++++++++++++&&&                           ###############&&&+",
"++++++&&&&&&&&&&&&      ##################      ############&&&+",
"++++++&&&&&&&&&&&&      ##################      ############&&&+",
"++++++&&&&&&&&&&&&      ##################      ############&&&+",
"+++&&&..........................................            &&&+",
"+++&&&..........................................            &&&+",
"+++&&&..........................................            &&&+",
"+++&&&%%%$$$$$$.................................            &&&+",
"+++&&&%%%$$$$$$.................................            &&&+",
"+++&&&%%%$$$$$$.................................            &&&+",
"+++&&&%%%$$$$$$..............................               &&&+",
"+++&&&%%%$$$$$$..............................               &&&+",
"+++&&&%%%$$$$$$..............................               &&&+",
"+++&&&%%%$$$$$$...........................#########      &&&++++",
"+++&&&%%%$$$$$$...........................#########      &&&++++",
"+++&&&%%%$$$$$$...........................#########      &&&++++",
"+++&&&.........         ..................#########   &&&+++++++",
"+++&&&.........         ..................#########   &&&+++++++",
"+++&&&.........         ..................#########   &&&+++++++",
"++++++&&&&&&&&&         ###########################&&&++++++++++",
"++++++&&&&&&&&&         ###########################&&&++++++++++",
"++++++&&&&&&&&&         ###########################&&&++++++++++",
"+++++++++++++++&&&&&&&&&      ######               &&&++++++++++",
"+++++++++++++++&&&&&&&&&      ######               &&&++++++++++",
"+++++++++++++++&&&&&&&&&      ######               &&&++++++++++",
"++++++++++++++++++++O&&&      &&&&&&&&&&&&&&&      &&&+++OO+++++",
"+++++++++++++++++++++&&&      &&&&&&&&&&&&&&&      &&&+++OO+++++",
"+++++++++++++++++++++&&&      &&&&&&&&&&&&&&&      &&&++++++++++",
"+++O++++++++++++++++++++&&&###&&&++O+++++++++&&&###&&&++++++++++",
"++++++++++++++++++++++++&&&###&&&+++++++O++++&&&###&&&++++++++++",
"++++++++++++++O+++++++++&&&###&&&++++++++++++&&&###&&&++++++++++",
"++++++++++++++++++++++++++++++                  +++O++++++++++++",
"++++++++++++++++++++++++++++++                  ++++++++++++++++",
"++++++++++++++++++++++++++++++                  ++++++++++++++++",
"++++++++++++++++++++++++++++++OO+            +++++++++++++++++++",
"+++++++++++++++++++++++++++++++++            +++++++++++++++++++",
"+++++++++++++++++++++++++++++++++            +++++++++++++++++++",
"++++++++++++++++++++++++++++++++++++++++++++++++++++++++++++++++",
"++++++++++++++++++++++++++++++++++++++++++++++++++++++++++++++++",
"++++++++++++++++++++++++++++++++++++++++++++++++++++++++++++++++",
"++++++++++++++++++++OO++++++++++++++++++++++++++++++++++++++++++",
"++++++++++++++++++++OO+++++++++++++++++++++++++++++++++++OO+++++",
"+++++++++++++++++++++++++++++++++++++++++++++++++++++++++OO+++++",
"++++++++++++++++++++++++++++++++++++++++++++++++++++++++++++++++"
};
