/* XPM */
static char *bc51b6a0c39c4cb4cbbb6090843a8095mB7iq1XF2wD133ie[] = {
/* columns rows colors chars-per-pixel */
"64 64 11 1 ",
"  c #1A1C2C",
". c #333C57",
"X c #B13E53",
"o c #EF7D57",
"O c #38B764",
"+ c #A7F070",
"@ c #FFCD75",
"# c #3B5DC9",
"$ c #41A6F6",
"% c #73EFF7",
"& c #F4F4F4",
/* pixels */
"+++++++++++++++++++++++++++++++++++++++++++++++++++++++++++OO+++",
"++++++++++++++OO++++++++++++++++++++++++++++++++OO+++++++++OO+++",
"++++++++++++++OO++++++++++++++++++++++++++++++++OO++++++++++++++",
"+++++++++++++++++++++++++&&&&&&&&&&&&+++++++++++++++++++++++++++",
"+++++++++++++++++++++++++&&&&&&&&&&&&+++++++++++++++++++++++++++",
"+++++++++++++++++++++++++&&&&&&&&&&&&+++++++++++++++++++++++++++",
"+++++++&&&&&&&&&&&&&&&&&&@@@@@@@@@@@@&&&&&&+++++++++++++++++++++",
"+++++++&&&&&&&&&&&&&&&&&&@@@@@@@@@@@@&&&&&&+++++++++++++++++++++",
"++++OO+&&&&&&&&&&&&&&&&&&@@@@@@@@@@@@&&&&&&+++++++++++++++++++++",
"++++&&&############   @@@ooooooXXXooo      &&&++++++++++++++++++",
"++++&&&############   @@@ooooooXXXooo      &&&++++++++++++++++++",
"++++&&&############   @@@ooooooXXXooo      &&&++++++++++++++++O+",
"+&&&###############   ooo@@@@@@ooo@@@         &&&++O++++++++++++",
"+&&&###############   ooo@@@@@@ooo@@@         &&&+++++++++++++++",
"+&&&###############   ooo@@@@@@ooo@@@         &&&+++++++++++++++",
"+&&&###############      @@@@@@@@@@@@         &&&+++++++++++++++",
"+&&&###############      @@@@@@@@@@@@         &&&++++++++OO+++++",
"+&&&###############      @@@@@@@@@@@@         &&&++++++++OO+++++",
"+&&&###############                           &&&+++++++++++++++",
"+&&&###############                           &&&+++++++++++++++",
"+&&&###############                           &&&+++++++++++++++",
"+&&&############      ##################      &&&&&&&&&&&&++++++",
"+&&&############      ##################      &&&&&&&&&&&&++++++",
"+&&&############      ##################      &&&&&&&&&&&&++++++",
"+&&&            ..........................................&&&+++",
"+&&&            ..........................................&&&+++",
"+&&&            ..........................................&&&+++",
"+&&&            .................................$$$$$$%%%&&&+O+",
"+&&&            .................................$$$$$$%%%&&&+++",
"+&&&            .................................$$$$$$%%%&&&+++",
"+&&&               ..............................$$$$$$%%%&&&+++",
"+&&&               ..............................$$$$$$%%%&&&+++",
"+&&&               ..............................$$$$$$%%%&&&+++",
"++++&&&      #########...........................$$$$$$%%%&&&+++",
"++++&&&      #########...........................$$$$$$%%%&&&+++",
"++++&&&      #########...........................$$$$$$%%%&&&+++",
"+++++++&&&   #########..................         .........&&&+++",
"+++++++&&&   #########..................         .........&&&+++",
"+++++++&&&   #########..................         .........&&&+++",
"++++++++++&&&###########################         &&&&&&&&&++++++",
"++++++++++&&&###########################         &&&&&&&&&++++++",
"++++++++++&&&###########################         &&&&&&&&&++++++",
"++++++++++&&&               ######      &&&&&&&&&+++++++++++++++",
"++++++++++&&&               ######      &&&&&&&&&+++++++++++++++",
"++++++++++&&&               ######      &&&&&&&&&+++++++++++++++",
"++++++++++&&&      &&&&&&&&&&&&&&&      &&&++++++++++++++OO+++++",
"++++++++++&&&      &&&&&&&&&&&&&&&      &&&++++++++++++++OO+++++",
"++++++++++&&&      &&&&&&&&&&&&&&&      &&&+++++++++++++++++++++",
"+++O++++++&&&###&&&++++++++++++&&&###&&&++++++++++++++++++++++++",
"++++++++++&&&###&&&++++++++++++&&&###&&&O+++++++++++++++++++++++",
"++++++++++&&&###&&&++++++++++++&&&###&&&++++++++++++++++++++++++",
"++++++++++++++++                  +++++++++++++++++O++++++++++++",
"++++++++++++++++                  ++++++++++++++++++++++++++++++",
"++++++++++++++++                  ++++++++++++++++++++++++++++++",
"+++++++++++++++++++            O++++++++++++++++++++++++++++++++",
"+++++++++++++++++++            +++++++++++++++++++++++++++++++++",
"+++++++++++++++++++            +++++++++++++++++++++++++++++++++",
"++++++++++++++++++++++++++++++++++++++++++++++++++++++++++++++++",
"++++++++++++++++++++++++++++++++++++++++++++++++++++++++++++++++",
"++++++++++++++++++++++++++++++++++++++++++++++++++++++++++++++++",
"++++++++++++++++++++OO++++++++++++++++++++++++++++++++++++++++++",
"++++++++++++++++++++OO+++++++++++++++++++++++++++++++++++OO+++++",
"+++++++++++++++++++++++++++++++++++++++++++++++++++++++++OO+++++",
"++++++++++++++++++++++++++++++++++++++++++++++++++++++++++++++++"
};
